<svg xmlns="http://www.w3.org/2000/svg" viewBox="0 0 128 128" role="img" aria-labelledby="title">
  <title id="title">Multilig Planner</title>
  <defs>
    <linearGradient id="bg" x1="16" y1="10" x2="116" y2="120" gradientUnits="userSpaceOnUse"><stop stop-color="#1e5a87"/><stop offset="1" stop-color="#081827"/></linearGradient>
    <linearGradient id="bone" x1="0" y1="0" x2="1" y2="1"><stop stop-color="#e8f5ff"/><stop offset="1" stop-color="#75a8ce"/></linearGradient>
    <linearGradient id="lig" x1="0" y1="0" x2="1" y2="1"><stop stop-color="#66e0ff"/><stop offset="1" stop-color="#2d75ff"/></linearGradient>
  </defs>
  <rect x="4" y="4" width="120" height="120" rx="30" fill="url(#bg)" stroke="#4f8fbd" stroke-width="4"/>
  <path d="M42 19c0 18-4 31-12 47-5 10 0 19 10 20 8 1 13-7 24-7s16 8 24 7c10-1 15-10 10-20-8-16-12-29-12-47z" fill="url(#bone)" opacity=".94"/>
  <path d="M35 94c-8 4-9 14-2 18h62c7-4 6-14-2-18-16-8-42-8-58 0z" fill="url(#bone)" opacity=".9"/>
  <path d="M49 77c4 9 13 13 17 21" fill="none" stroke="url(#lig)" stroke-width="8" stroke-linecap="round"/>
  <path d="M78 76c-5 10-13 14-16 23" fill="none" stroke="#ffc36c" stroke-width="7" stroke-linecap="round"/>
  <path d="M88 69c9 8 10 18 5 27" fill="none" stroke="#b58bff" stroke-width="6" stroke-linecap="round"/>
</svg>
